<svg width="16" height="16" viewBox="0 0 16 16" fill="none" xmlns="http://www.w3.org/2000/svg">
<path d="M8 0C12.411 0 16 2.912 16 6.492C16 7.925 15.445 9.215 14.285 10.486C12.607 12.418 8.854 14.771 8 15.131C7.17 15.481 7.266 14.934 7.304 14.718L7.307 14.7L7.421 14.015C7.448 13.811 7.476 13.494 7.395 13.292C7.305 13.069 6.951 12.953 6.691 12.897C2.846 12.39 0 9.701 0 6.492C0 2.912 3.59 0 8 0ZM5.022 7.686H3.497V4.918C3.497 4.8768 3.4807 4.83727 3.45166 4.80804C3.42262 4.77882 3.3832 4.76226 3.342 4.762H2.78C2.75951 4.762 2.73923 4.76604 2.7203 4.77387C2.70137 4.78171 2.68418 4.79321 2.66969 4.80769C2.65521 4.82218 2.64371 4.83937 2.63587 4.8583C2.62804 4.87723 2.624 4.89751 2.624 4.918V8.404C2.624 8.445 2.641 8.484 2.668 8.511V8.512L2.67 8.514L2.672 8.516C2.701 8.54389 2.73976 8.55933 2.78 8.559H5.022C5.108 8.559 5.177 8.489 5.177 8.403V7.843C5.17713 7.82251 5.17323 7.8022 5.16551 7.78322C5.15779 7.76425 5.14641 7.74698 5.13202 7.7324C5.11762 7.71782 5.1005 7.70622 5.08162 7.69826C5.06275 7.6903 5.04249 7.68613 5.022 7.686ZM5.813 4.762C5.77163 4.762 5.73195 4.77844 5.70269 4.80769C5.67344 4.83695 5.657 4.87663 5.657 4.918V8.404C5.657 8.49 5.727 8.559 5.813 8.559H6.375C6.461 8.559 6.53 8.489 6.53 8.404V4.918C6.53 4.8768 6.5137 4.83727 6.48466 4.80804C6.45562 4.77882 6.4162 4.76226 6.375 4.762H5.813ZM9.676 4.762C9.63463 4.762 9.59495 4.77844 9.56569 4.80769C9.53644 4.83695 9.52 4.87663 9.52 4.918V6.988L7.923 4.832C7.91896 4.82675 7.91462 4.82174 7.91 4.817V4.816C7.90684 4.8125 7.9035 4.80916 7.9 4.806L7.897 4.803C7.89357 4.79972 7.88989 4.79671 7.886 4.794H7.885L7.88 4.79L7.877 4.788C7.87544 4.78683 7.87376 4.78583 7.872 4.785L7.864 4.78H7.862L7.859 4.778L7.849 4.774L7.845 4.772C7.84173 4.77081 7.83839 4.76981 7.835 4.769H7.833L7.83 4.768L7.821 4.766H7.815L7.812 4.765H7.808L7.806 4.764H7.232C7.1908 4.764 7.15127 4.7803 7.12204 4.80934C7.09282 4.83838 7.07626 4.8778 7.076 4.919V8.405C7.076 8.491 7.146 8.56 7.232 8.56H7.792C7.879 8.56 7.949 8.49 7.949 8.405V6.335L9.549 8.495C9.55964 8.50988 9.57285 8.52275 9.588 8.533L9.589 8.534L9.599 8.54L9.603 8.542C9.60557 8.54351 9.60825 8.54485 9.611 8.546L9.618 8.549L9.623 8.551C9.6263 8.5521 9.62964 8.5531 9.633 8.554H9.636C9.64901 8.55774 9.66246 8.55976 9.676 8.56H10.236C10.323 8.56 10.393 8.49 10.393 8.405V4.918C10.393 4.87663 10.3766 4.83695 10.3473 4.80769C10.3181 4.77844 10.2784 4.762 10.237 4.762H9.676ZM13.491 5.479V4.919C13.4911 4.89851 13.4872 4.8782 13.4795 4.85922C13.4718 4.84025 13.4604 4.82298 13.446 4.8084C13.4316 4.79382 13.4145 4.78222 13.3956 4.77426C13.3767 4.7663 13.3565 4.76213 13.336 4.762H11.094C11.0536 4.76205 11.0149 4.77783 10.986 4.806H10.985L10.984 4.808L10.982 4.811C10.9541 4.83965 10.9383 4.87799 10.938 4.918V8.404C10.938 8.445 10.955 8.484 10.982 8.511L10.984 8.514L10.986 8.516C11.0151 8.5438 11.0538 8.55922 11.094 8.559H13.336C13.422 8.559 13.491 8.489 13.491 8.403V7.843C13.4911 7.82251 13.4872 7.8022 13.4795 7.78322C13.4718 7.76425 13.4604 7.74698 13.446 7.7324C13.4316 7.71782 13.4145 7.70622 13.3956 7.69826C13.3767 7.6903 13.3565 7.68613 13.336 7.686H11.81V7.097H13.335C13.421 7.097 13.49 7.027 13.49 6.941V6.381C13.4901 6.36051 13.4862 6.3402 13.4785 6.32122C13.4708 6.30225 13.4594 6.28498 13.445 6.2704C13.4306 6.25582 13.4135 6.24422 13.3946 6.23626C13.3757 6.2283 13.3555 6.22413 13.335 6.224H11.81V5.635H13.335C13.421 5.635 13.49 5.565 13.49 5.479H13.491Z" fill="#BFC0C1"/>
</svg>
