<svg width="36" height="36" viewBox="0 0 36 36" fill="none" xmlns="http://www.w3.org/2000/svg">
<rect width="36" height="36" fill="#2A2627"/>
<path d="M24.3553 14.741C24.3655 14.8831 24.3655 15.0253 24.3655 15.1674C24.3655 19.5024 21.066 24.4973 15.0355 24.4973C13.1777 24.4973 11.4518 23.9593 10 23.0253C10.264 23.0557 10.5178 23.0659 10.7919 23.0659C12.3248 23.0659 13.736 22.5481 14.8629 21.6649C13.4213 21.6344 12.2132 20.6903 11.7969 19.3908C12 19.4212 12.203 19.4415 12.4162 19.4415C12.7107 19.4415 13.0051 19.4009 13.2792 19.3298C11.7767 19.0253 10.6497 17.7055 10.6497 16.1116V16.071C11.0863 16.3146 11.5939 16.4669 12.1319 16.4872C11.2487 15.8983 10.67 14.8933 10.67 13.7562C10.67 13.1471 10.8324 12.5887 11.1167 12.1014C12.7309 14.0913 15.1573 15.3907 17.8781 15.5329C17.8274 15.2892 17.7969 15.0354 17.7969 14.7816C17.7969 12.9745 19.2588 11.5024 21.0761 11.5024C22.0203 11.5024 22.873 11.8984 23.472 12.538C24.2131 12.3958 24.9238 12.1217 25.5533 11.7461C25.3096 12.5075 24.7918 13.1471 24.1116 13.5532C24.7715 13.4822 25.4111 13.2994 25.9999 13.0456C25.5533 13.6953 24.9949 14.274 24.3553 14.741Z" fill="#BFC0C1"/>
<rect x="0.25" y="0.25" width="35.5" height="35.5" stroke="black" stroke-opacity="0.1" stroke-width="0.5"/>
</svg>
