<svg width="183" height="300" viewBox="0 0 183 300" fill="none" xmlns="http://www.w3.org/2000/svg">
<path d="M277.975 184.245H164.414C126.77 184.245 94.9058 154.72 93.9212 117.072C92.9054 78.1117 124.172 46.2054 162.884 46.2054V46.1882H186.211C186.266 46.1882 186.311 46.1432 186.311 46.0879V0.0967802C186.311 0.0449339 186.266 0 186.211 0L162.787 0V0.0103693C98.5922 0.0622157 46.6932 52.6586 47.7332 117.135C48.7558 180.349 101.681 230.443 164.874 230.443H212.596C212.685 230.443 212.727 230.55 212.665 230.612L165.029 278.27C138.054 305.257 93.935 306.509 66.7556 279.721C52.6978 265.865 45.8399 247.483 46.1923 229.216C46.1923 229.161 46.1508 229.116 46.0956 229.116L0.107888 229.112C0.0526105 229.112 0.00769968 229.157 0.00769968 229.213C-0.330877 258.596 10.4967 288.086 32.4903 310.76C77.2791 356.938 152.661 355.977 198.137 310.483L277.975 230.443V184.341C277.975 184.29 278.031 184.245 277.975 184.245Z" fill="#E1251B"/>
</svg>
