<svg width="258" height="146" viewBox="0 0 258 146" fill="none" xmlns="http://www.w3.org/2000/svg">
<path d="M168.18 51.8718H136.165C125.553 51.8718 116.569 43.5582 116.295 32.96C116.004 21.9914 124.822 13.009 135.736 13.009V13.003H142.309C142.327 13.003 142.339 12.989 142.339 12.975V0.0280323C142.339 0.0120139 142.327 0 142.309 0H135.706V0.00200231C117.611 0.0180208 102.978 14.8251 103.272 32.976C103.559 50.7766 118.481 64.8788 136.295 64.8788H149.748C149.772 64.8788 149.786 64.9109 149.768 64.9269L136.339 78.3424C128.734 85.9411 116.297 86.2935 108.635 78.7508C104.671 74.8503 102.737 69.6764 102.837 64.5324C102.837 64.5184 102.823 64.5044 102.809 64.5044H89.8451C89.8291 64.5044 89.8171 64.5144 89.8171 64.5324C89.7229 72.806 92.775 81.1076 98.9736 87.4909C111.599 100.492 132.852 100.22 145.674 87.4108L168.18 64.8788V51.8999C168.18 51.8838 168.194 51.8718 168.18 51.8718Z" fill="#E02826"/>
<path d="M31.1135 135.716L20.9026 121.338H27.2156L33.7666 130.755L40.3119 121.338H46.6267L36.418 135.716V145.534H31.1135V135.716Z" fill="white"/>
<path d="M49.5452 121.336H60.7779C66.0466 121.336 69.1248 123.579 69.1248 127.613C69.1248 130.414 67.6618 131.924 66.3111 132.513C67.9103 133.079 70.3773 134.591 70.3773 138.816C70.3773 143.309 67.4895 145.566 62.0445 145.566H49.5452V121.336ZM60.6779 130.416C62.6779 130.416 63.8824 129.68 63.8824 128.272C63.8824 126.808 62.7361 126.168 60.6258 126.168H54.6898V130.416H60.6779ZM61.8623 140.726C63.9746 140.726 65.169 139.837 65.1708 137.933C65.2031 136.081 63.9744 135.104 61.8623 135.104H54.6918V140.726H61.8623Z" fill="white"/>
<path d="M74.6675 121.337H93.8022V126.165H79.962V130.404L89.6797 130.428V135.105H79.962V140.728H93.8341V145.563H74.6675V121.337Z" fill="white"/>
<path d="M113.66 145.565L104.358 135.427V145.565H99.0308V121.339H110.58C116.193 121.339 119.735 124.186 119.735 129.052C119.735 133.785 116.869 136.266 111.62 136.444L120.745 145.565H113.66ZM104.358 132.037H111.007C113.021 132.037 114.302 131.042 114.302 129.052C114.302 127.107 113.021 126.088 111.007 126.088H104.358V132.037Z" fill="white"/>
<path d="M154.313 142.974V133.783H166.323V131.216L154.313 131.208V123.948H170.422V121.351H151.531V145.597H170.432V142.974H154.313Z" fill="white"/>
<path d="M194.482 121.352V141.385L177.848 121.36H175.208V145.598H178V125.619L194.608 145.598H197.263V121.352H194.482Z" fill="white"/>
<path d="M206.688 121.353H203.897V145.595H206.688V121.353Z" fill="white"/>
<path d="M232.748 139.949L232.542 140.147C230.327 142.245 227.782 143.267 224.766 143.267C219.055 143.267 214.748 139.048 214.748 133.457C214.748 127.893 219.055 123.694 224.766 123.694C227.682 123.694 230.333 124.765 232.43 126.792L232.646 126.994L234.786 125.27L234.52 125.005C231.881 122.404 228.51 121.025 224.77 121.025C217.592 121.025 211.97 126.487 211.97 133.459C211.97 140.569 217.471 145.93 224.77 145.93C228.61 145.93 231.834 144.604 234.638 141.883L234.915 141.617L232.748 139.949Z" fill="white"/>
<path d="M250.44 132.463L247.007 131.668C243.049 130.739 241.496 129.603 241.472 127.613C241.442 125.25 243.871 123.797 247.969 123.727C250.569 123.671 253.274 124.462 255.573 125.913L255.847 126.085L257.322 123.869L257.032 123.687C254.442 122.051 251.14 121.118 247.945 121.118C247.889 121.118 247.835 121.118 247.785 121.122C242.232 121.178 238.522 123.767 238.556 127.563C238.584 130.921 240.949 132.965 246.222 134.197L249.525 134.972C253.895 136.003 255.158 136.93 255.152 139.098C255.146 141.595 252.605 143.175 248.516 143.225C245.228 143.259 241.719 142.332 239.113 140.736L238.845 140.57L237.31 142.779L237.606 142.965C240.46 144.781 244.538 145.864 248.44 145.832C251.845 145.816 254.649 144.867 256.336 143.155C257.438 142.044 258.013 140.63 257.999 139.072C257.973 135.614 255.785 133.702 250.44 132.463" fill="white"/>
<path d="M12.1486 140.704C8.13046 140.704 4.87186 137.451 4.87186 133.434C4.87186 129.417 8.13046 126.162 12.1486 126.162H16.5112V121.294H12.1486C5.43901 121.294 0 126.73 0 133.434C0 140.138 5.43901 145.572 12.1486 145.572H22.2148V140.704H12.1486Z" fill="white"/>
<path d="M139.381 132.939V135.462H144.447V139.603C142.333 141.979 139.343 143.337 136.232 143.337C130.551 143.337 126.096 139.02 126.096 133.506C126.096 127.871 130.412 123.622 136.138 123.622C139.226 123.622 142.012 124.745 143.98 126.782L144.194 127.002L146.327 125.274L146.076 125.014C143.557 122.395 140.03 120.953 136.14 120.953C128.833 120.953 123.32 126.349 123.32 133.508C123.32 140.512 128.994 146 136.238 146C140.529 146 144.513 144.048 147.169 140.638L147.239 140.546V132.933L139.381 132.939H139.381Z" fill="white"/>
</svg>
