<svg width="1115" height="2039" viewBox="0 0 1115 2039" fill="none" xmlns="http://www.w3.org/2000/svg">
<path d="M1683.85 1088.91H995.948C767.916 1088.91 574.897 914.417 568.933 691.915C562.78 461.651 752.178 273.081 986.677 273.081V272.979H1127.98C1128.32 272.979 1128.59 272.713 1128.59 272.386V0.571985C1128.59 0.265566 1128.32 0 1127.98 0H986.091V0.0612843C597.227 0.367704 282.847 311.22 289.146 692.283C295.341 1065.89 615.937 1361.95 998.731 1361.95H1287.81C1288.35 1361.95 1288.61 1362.59 1288.23 1362.95L999.673 1644.61C836.267 1804.12 569.016 1811.51 404.376 1653.19C319.22 1571.3 277.678 1462.66 279.812 1354.7C279.812 1354.37 279.561 1354.11 279.226 1354.11L0.653539 1354.09C0.318691 1354.09 0.0466412 1354.35 0.0466412 1354.68C-2.0043 1528.34 63.5841 1702.63 196.812 1836.64C468.122 2109.55 924.751 2103.87 1200.23 1835L1683.85 1361.95V1089.48C1683.85 1089.18 1684.19 1088.91 1683.85 1088.91Z" fill="#2A2426"/>
</svg>
